<?xml version="1.0" encoding="UTF-8" standalone="no"?>
<!DOCTYPE svg PUBLIC "-//W3C//DTD SVG 1.1//EN" "http://www.w3.org/Graphics/SVG/1.1/DTD/svg11.dtd">
<svg width="100%" height="100%" viewBox="0 0 921 268" version="1.1" xmlns="http://www.w3.org/2000/svg" xmlns:xlink="http://www.w3.org/1999/xlink" xml:space="preserve" xmlns:serif="http://www.serif.com/" style="fill-rule:evenodd;clip-rule:evenodd;">
    <g id="g70" transform="matrix(1,0,0,1,9.02197,-20)">
        <g id="path14" transform="matrix(1,0,0,1.05017,-6,6.52775)">
            <path d="M910.454,216.93C908.472,216.93 906.849,216.597 905.583,215.935C904.597,214.231 904.101,212.144 904.101,209.664C904.101,207.189 904.597,205.102 905.583,203.397C906.849,202.79 908.472,202.491 910.454,202.491C912.433,202.491 914.058,202.79 915.319,203.397C916.256,204.88 916.721,206.971 916.721,209.664C916.721,212.361 916.255,214.452 915.319,215.935C914.058,216.597 912.433,216.93 910.454,216.93Z" style="fill:rgb(179,179,179);fill-rule:nonzero;"/>
        </g>
        <g id="path16" transform="matrix(1,0,0,1.05017,-6,6.52775)">
            <path d="M892.714,177.074L891.969,177.074C888.891,177.074 886.583,177.395 885.042,178.024C883.499,178.66 882.73,180.007 882.73,182.067C882.73,184.132 883.736,185.589 885.742,186.443C887.753,187.297 890.956,187.718 895.356,187.718C899.754,187.718 902.878,187.102 904.718,185.864C906.562,184.627 907.481,182.717 907.481,180.132C907.481,177.548 906.298,174.52 903.934,171.056C904.485,170.063 905.46,169.104 906.862,168.17C908.265,167.232 909.573,166.627 910.783,166.352C912.708,168.223 914.249,170.588 915.403,173.45C916.559,176.308 917.136,179.249 917.136,182.277C917.136,188.051 915.184,192.492 911.278,195.602C907.376,198.71 901.914,200.26 894.902,200.26C887.886,200.26 882.58,198.478 878.975,194.898C875.375,191.326 873.573,187.103 873.573,182.235C873.573,177.369 874.837,173.45 877.368,170.479C879.901,167.508 883.141,166.022 887.101,166.022C889.083,166.022 890.58,166.562 891.599,167.631C892.619,168.702 893.125,170.221 893.125,172.168C893.126,174.124 892.989,175.76 892.714,177.074Z" style="fill:rgb(179,179,179);fill-rule:nonzero;"/>
        </g>
        <g id="path18" transform="matrix(1,0,0,1.05017,-6,6.52775)">
            <path d="M878.36,134.174C882.317,130.213 887.972,128.233 895.313,128.233C902.657,128.233 908.305,130.213 912.266,134.174C915.51,137.423 917.136,141.738 917.136,147.13C917.136,152.523 915.51,156.834 912.266,160.082C908.305,164.044 902.657,166.021 895.313,166.021C887.972,166.021 882.317,164.043 878.36,160.082C875.171,156.834 873.573,152.522 873.573,147.13C873.573,141.738 875.171,137.423 878.36,134.174ZM886.032,152.118C888.231,152.974 891.34,153.397 895.356,153.397C899.368,153.397 902.462,152.974 904.636,152.118C906.806,151.264 907.893,149.606 907.893,147.13C907.893,144.656 906.806,142.99 904.636,142.139C902.462,141.283 899.367,140.858 895.356,140.858C891.339,140.858 888.231,141.283 886.032,142.139C883.832,142.991 882.73,144.657 882.73,147.13C882.73,149.606 883.832,151.265 886.032,152.118Z" style="fill:rgb(179,179,179);fill-rule:nonzero;"/>
        </g>
        <g id="path20" transform="matrix(1,0,0,1.05017,-6,6.52775)">
            <path d="M890.981,103.238C887.019,103.238 885.042,104.531 885.042,107.115C885.094,108.986 886.142,110.967 888.175,113.054L915.897,113.054C916.226,114.761 916.393,116.782 916.393,119.119C916.393,121.46 916.226,123.534 915.897,125.347L874.809,125.347L874.234,124.771L874.234,120.15C874.234,116.742 875.968,114.541 879.431,113.55C875.856,109.591 874.07,105.794 874.07,102.167C874.07,97.708 875.996,94.491 879.845,92.513C875.995,88.277 874.07,84.206 874.07,80.3C874.07,76.398 875.28,73.508 877.701,71.64C880.119,69.769 883.281,68.831 887.186,68.831L905.749,68.831C909.158,68.831 911.884,68.173 913.919,66.852C915.679,68.997 916.56,71.404 916.56,74.072C916.56,76.738 915.925,78.582 914.664,79.597C913.394,80.618 911.473,81.123 908.886,81.123L890.899,81.123C886.994,81.123 885.044,82.477 885.044,85.166C885.044,86.873 886.114,88.799 888.259,90.943L915.899,90.943C916.228,92.705 916.395,94.736 916.395,97.048C916.395,99.357 916.228,101.419 915.899,103.236L890.981,103.236L890.981,103.238Z" style="fill:rgb(179,179,179);fill-rule:nonzero;"/>
        </g>
        <g id="g68" transform="matrix(1,0,0,1,-6,14)">
            <g id="g62">
                <g id="g34">
                    <clipPath id="_clip1">
                        <path id="rect30" d="M524,64L524,6L541.028,6L577,45.425L577,64"/>
                    </clipPath>
                    <g clip-path="url(#_clip1)">
                        <rect x="429" y="6" width="218" height="38" style="fill:rgb(13,71,161);fill-rule:nonzero;"/>
                    </g>
                    <clipPath id="_clip2">
                        <path id="rect32" d="M524,64L524,6L541.028,6L577,45.425L577,64"/>
                    </clipPath>
                    <g clip-path="url(#_clip2)">
                        <rect x="429" y="44" width="218" height="31" style="fill:rgb(21,101,192);fill-rule:nonzero;"/>
                    </g>
                </g>
                <g id="g60">
                    <g id="g58">
                        <clipPath id="_clip3">
                            <path d="M577,257.213C577,267.458 566.745,274 556.499,274L387.882,274C377.623,274 369,267.458 369,257.213L369,28.263C369,18.019 377.623,6 387.882,6L515,6L515,73L577,73L577,257.213Z"/>
                        </clipPath>
                        <g clip-path="url(#_clip3)">
                            <rect id="rect42" x="368" y="6" width="212" height="33" style="fill:rgb(13,71,161);fill-rule:nonzero;"/>
                            <rect id="rect44" x="368" y="39" width="212" height="33" style="fill:rgb(21,101,192);fill-rule:nonzero;"/>
                            <rect id="rect46" x="368" y="72" width="212" height="32" style="fill:rgb(25,118,210);fill-rule:nonzero;"/>
                            <rect id="rect48" x="368" y="104" width="212" height="36" style="fill:rgb(30,136,229);fill-rule:nonzero;"/>
                            <rect id="rect50" x="368" y="140" width="212" height="36" style="fill:rgb(33,150,243);fill-rule:nonzero;"/>
                            <rect id="rect52" x="368" y="175" width="212" height="35" style="fill:rgb(66,165,245);fill-rule:nonzero;"/>
                            <rect id="rect54" x="368" y="210" width="212" height="36" style="fill:rgb(100,181,246);fill-rule:nonzero;"/>
                            <rect id="rect56" x="368" y="246" width="212" height="31" style="fill:rgb(144,202,249);fill-rule:nonzero;"/>
                            <rect id="rect847" x="574.055" y="45.425" width="2.945" height="9.558" style="fill:rgb(144,202,249);fill-rule:nonzero;stroke:rgb(147,200,106);stroke-width:1px;"/>
                        </g>
                    </g>
                </g>
            </g>
            <g id="g66" transform="matrix(1,0,0,1.01685,0,-3.68579)">
                <path id="path64" d="M417.316,184.82L475.975,132.131C478.956,129.434 481.944,126.375 484.924,122.968C487.915,119.555 489.406,115.571 489.406,111.015C489.406,105.896 487.561,101.881 483.863,98.97C480.163,96.053 475.828,94.602 470.852,94.602C464.878,94.602 460.223,96.443 456.878,100.137C453.537,103.84 451.654,108.388 451.227,113.787L419.235,111.442C419.658,103.627 421.292,96.834 424.141,91.08C426.982,85.32 430.749,80.518 435.442,76.674C440.136,72.835 445.642,69.961 451.972,68.042C458.302,66.121 465.164,65.16 472.555,65.16C479.383,65.16 485.781,66.121 491.752,68.042C497.725,69.961 502.909,72.808 507.32,76.57C511.726,80.338 515.18,85.066 517.668,90.752C520.153,96.442 521.403,103.055 521.403,110.598C521.403,115.427 520.899,119.801 519.909,123.711C518.912,127.623 517.522,131.178 515.749,134.372C513.966,137.568 511.872,140.524 509.458,143.226C507.034,145.92 504.406,148.561 501.562,151.117L455.703,190.579L522.683,190.579L522.683,218.733L417.316,218.733L417.316,184.82Z" style="fill:white;fill-rule:nonzero;"/>
            </g>
        </g>
        <path id="path4296" d="M-9.022,230.415L-9.022,80.155C-4.622,79.275 0.951,78.835 7.698,78.835C14.591,78.835 20.238,79.275 24.638,80.155L24.638,230.415C20.238,231.295 14.591,231.735 7.698,231.735C0.951,231.735 -4.622,231.295 -9.022,230.415Z" style="fill:rgb(102,102,102);fill-rule:nonzero;"/>
        <path id="path4298" d="M42.818,229.975L54.478,80.375C60.051,79.349 67.384,78.835 76.478,78.835C85.718,78.835 93.051,79.349 98.478,80.375L112.558,136.255C116.518,152.535 119.304,165.662 120.918,175.635L122.238,175.635C123.851,165.662 126.638,152.535 130.598,136.255L144.678,80.375C150.251,79.349 157.584,78.835 166.678,78.835C175.771,78.835 183.031,79.349 188.458,80.375L200.118,229.975C196.011,231.149 190.731,231.735 184.278,231.735C177.824,231.735 172.544,231.369 168.438,230.635L164.918,166.835C163.744,146.595 163.158,129.949 163.158,116.895L161.618,116.895L138.738,208.195C134.778,208.929 129.058,209.295 121.578,209.295C114.244,209.295 108.451,208.929 104.198,208.195L81.538,116.895L79.998,116.895C79.704,134.789 79.118,151.435 78.238,166.835L74.718,230.635C70.611,231.369 65.331,231.735 58.878,231.735C52.424,231.735 47.071,231.149 42.818,229.975Z" style="fill:rgb(102,102,102);fill-rule:nonzero;"/>
        <path id="path4300" d="M275.855,145.935L310.175,145.715L310.615,145.715C325.282,145.715 332.615,152.755 332.615,166.835L332.615,224.475C314.428,230.635 294.775,233.715 273.655,233.715C252.535,233.715 236.475,226.822 225.475,213.035C214.475,199.249 208.975,180.329 208.975,156.275C208.975,143.369 210.882,131.782 214.695,121.515C218.655,111.102 223.935,102.669 230.535,96.215C243.735,83.309 259.868,76.855 278.935,76.855C298.002,76.855 315.748,82.135 332.175,92.695C331.735,97.242 329.975,101.862 326.895,106.555C323.962,111.102 320.662,114.549 316.995,116.895C304.968,108.829 292.868,104.795 280.695,104.795C255.762,104.795 243.295,121.882 243.295,156.055C243.295,190.082 255.762,207.095 280.695,207.095C287.002,207.095 293.748,206.435 300.935,205.115L300.935,189.055C300.935,182.455 301.082,177.395 301.375,173.875L289.275,173.875C283.702,173.875 279.668,172.849 277.175,170.795C274.682,168.595 273.435,164.929 273.435,159.795C273.435,154.662 274.242,150.042 275.855,145.935Z" style="fill:rgb(102,102,102);fill-rule:nonzero;"/>
        <path id="path4302" d="M661.013,145.935L695.333,145.715L695.773,145.715C710.44,145.715 717.773,152.755 717.773,166.835L717.773,224.475C699.587,230.635 679.933,233.715 658.813,233.715C637.693,233.715 621.633,226.822 610.633,213.035C599.633,199.249 594.133,180.329 594.133,156.275C594.133,143.369 596.04,131.782 599.853,121.515C603.813,111.102 609.093,102.669 615.693,96.215C628.893,83.309 645.027,76.855 664.093,76.855C683.16,76.855 700.907,82.135 717.333,92.695C716.893,97.242 715.133,101.862 712.053,106.555C709.12,111.102 705.82,114.549 702.153,116.895C690.127,108.829 678.027,104.795 665.853,104.795C640.92,104.795 628.453,121.882 628.453,156.055C628.453,190.082 640.92,207.095 665.853,207.095C672.16,207.095 678.907,206.435 686.093,205.115L686.093,189.055C686.093,182.455 686.24,177.395 686.533,173.875L674.433,173.875C668.86,173.875 664.827,172.849 662.333,170.795C659.84,168.595 658.593,164.929 658.593,159.795C658.593,154.662 659.4,150.042 661.013,145.935Z" style="fill:rgb(102,102,102);fill-rule:nonzero;"/>
        <path id="path4304" d="M787.859,102.815C768.059,102.815 758.159,120.342 758.159,155.395C758.159,190.302 768.059,207.755 787.859,207.755C807.806,207.755 817.779,190.302 817.779,155.395C817.779,120.342 807.806,102.815 787.859,102.815ZM746.719,219.855C731.026,206.802 723.179,185.315 723.179,155.395C723.179,125.329 731.026,103.769 746.719,90.715C758.012,81.475 771.799,76.855 788.079,76.855C804.359,76.855 818.146,81.475 829.439,90.715C845.132,103.769 852.979,125.329 852.979,155.395C852.979,185.315 845.132,206.802 829.439,219.855C818.146,229.095 804.359,233.715 788.079,233.715C771.799,233.715 758.012,229.095 746.719,219.855Z" style="fill:rgb(102,102,102);fill-rule:nonzero;"/>
    </g>
</svg>
